<?xml version="1.0" standalone="no"?>
<!DOCTYPE svg PUBLIC "-//W3C//DTD SVG 20010904//EN"
 "http://www.w3.org/TR/2001/REC-SVG-20010904/DTD/svg10.dtd">
<svg version="1.0" xmlns="http://www.w3.org/2000/svg"
 width="457.000000pt" height="418.000000pt" viewBox="0 0 457.000000 418.000000"
 preserveAspectRatio="xMidYMid meet">

<g transform="translate(0.000000,418.000000) scale(0.100000,-0.100000)"
fill="#000000" stroke="none">
<path d="M95 3358 c-38 -21 -46 -59 -21 -94 12 -16 30 -20 123 -24 l108 -5 0
-30 0 -30 -107 -3 c-87 -2 -108 -6 -108 -17 0 -12 19 -15 103 -15 98 0 105 1
127 25 20 21 22 30 14 52 -14 40 -48 53 -145 53 -67 0 -90 4 -100 16 -9 11
-10 20 -2 32 8 14 32 18 113 22 70 3 105 9 108 18 5 16 -184 16 -213 0z"/>
<path d="M440 3256 c0 -98 2 -116 15 -116 13 0 15 17 13 112 -2 78 -7 113 -15
116 -10 3 -13 -24 -13 -112z"/>
<path d="M570 3255 c0 -70 4 -115 10 -115 6 0 10 38 10 95 0 52 3 95 6 95 3 0
25 -16 48 -35 24 -19 51 -35 61 -35 9 0 39 16 66 36 l49 36 0 -96 c0 -79 3
-96 15 -96 12 0 15 19 15 115 0 75 -4 115 -11 115 -6 0 -37 -20 -69 -45 -32
-25 -61 -45 -63 -45 -3 0 -31 20 -63 45 -31 25 -61 45 -66 45 -4 0 -8 -52 -8
-115z"/>
<path d="M950 3356 c0 -14 17 -16 118 -16 127 0 142 -5 142 -50 0 -45 -15 -50
-142 -50 l-118 0 0 -50 c0 -38 4 -50 15 -50 10 0 15 10 15 34 l0 34 111 4
c125 3 139 11 139 78 0 68 -12 75 -154 78 -110 3 -126 2 -126 -12z"/>
<path d="M1340 3255 l0 -115 135 0 c113 0 135 2 135 15 0 13 -21 15 -125 15
l-125 0 0 100 c0 60 -4 100 -10 100 -6 0 -10 -45 -10 -115z"/>
<path d="M1707 3364 c-18 -18 16 -24 139 -24 112 0 134 2 134 15 0 13 -21 15
-133 15 -74 0 -137 -3 -140 -6z"/>
<path d="M2067 3363 c-17 -17 -2 -23 58 -23 l65 0 0 -100 c0 -60 4 -100 10
-100 6 0 10 40 10 100 l0 99 62 3 c38 2 63 8 66 16 3 9 -28 12 -130 12 -74 0
-138 -3 -141 -7z"/>
<path d="M2420 3355 c0 -13 22 -15 140 -15 118 0 140 2 140 15 0 13 -22 15
-140 15 -118 0 -140 -2 -140 -15z"/>
<path d="M2832 3360 c-31 -13 -44 -55 -40 -124 6 -88 21 -96 164 -96 94 0 114
3 114 15 0 12 -23 15 -122 17 l-123 3 -3 68 c-2 42 2 74 9 83 8 10 37 14 110
14 81 0 99 3 99 15 0 12 -17 15 -92 14 -51 0 -103 -4 -116 -9z"/>
<path d="M3160 3255 c0 -94 3 -115 15 -115 11 0 15 19 17 94 l3 94 112 -94
c62 -52 117 -94 122 -94 7 0 11 41 11 115 0 70 -4 115 -10 115 -6 0 -10 -38
-10 -95 0 -52 -2 -95 -5 -95 -3 0 -57 43 -119 95 -63 52 -119 95 -125 95 -7 0
-11 -37 -11 -115z"/>
<path d="M3565 3358 c-31 -18 -35 -28 -35 -105 0 -104 10 -113 138 -113 90 0
100 2 120 23 18 19 22 35 22 91 0 58 -3 70 -25 91 -22 23 -32 25 -112 25 -48
0 -97 -6 -108 -12z m210 -103 l0 -80 -99 -3 c-64 -2 -103 1 -112 9 -17 14 -19
111 -3 140 9 18 19 19 112 17 l102 -3 0 -80z"/>
<path d="M1707 3263 c-4 -3 -7 -33 -7 -65 l0 -58 140 0 c118 0 140 2 140 15 0
13 -21 15 -125 15 l-125 0 0 35 0 34 97 3 c66 2 98 7 101 16 3 9 -23 12 -105
12 -61 0 -113 -3 -116 -7z"/>
<path d="M2420 3205 l0 -65 140 0 c118 0 140 2 140 15 0 13 -21 15 -125 15
l-125 0 0 35 0 35 95 0 c78 0 95 3 95 15 0 12 -19 15 -110 15 l-110 0 0 -65z"/>
<path d="M219 2713 c-17 -54 -34 -104 -37 -110 -2 -7 2 -13 10 -13 8 0 27 40
50 110 26 80 33 110 23 110 -8 0 -26 -39 -46 -97z"/>
<path d="M350 2710 c0 -88 2 -100 19 -110 25 -13 81 -13 81 0 0 6 -11 10 -24
10 -49 0 -56 8 -56 71 0 56 1 59 25 59 14 0 25 5 25 10 0 6 -11 10 -25 10 -20
0 -25 5 -25 25 0 14 -4 25 -10 25 -6 0 -10 -40 -10 -100z"/>
<path d="M1020 2700 c0 -67 4 -110 10 -110 6 0 10 28 10 63 0 36 5 68 12 75 7
7 39 12 74 12 81 0 94 -12 94 -91 0 -33 4 -59 10 -59 6 0 10 28 10 65 0 94
-16 108 -121 103 l-79 -3 0 27 c0 16 -4 28 -10 28 -6 0 -10 -43 -10 -110z"/>
<path d="M522 2744 c-18 -12 -22 -25 -22 -69 0 -74 13 -85 105 -85 41 0 77 5
80 10 4 6 -20 10 -64 10 -78 0 -101 6 -101 26 0 11 19 14 84 14 76 0 86 2 100
22 21 30 20 44 -4 68 -26 26 -143 29 -178 4z m162 -20 c37 -36 9 -54 -86 -54
-75 0 -78 1 -78 23 0 37 19 47 86 47 44 0 67 -5 78 -16z"/>
<path d="M772 2744 c-18 -12 -22 -25 -22 -69 0 -77 11 -85 121 -85 53 0 89 4
89 10 0 6 -33 10 -79 10 -44 0 -86 3 -95 6 -19 7 -22 94 -4 112 7 7 40 12 80
12 39 0 68 4 68 10 0 17 -133 12 -158 -6z"/>
</g>
</svg>
